<svg width="126" height="93" viewBox="0 0 126 93" fill="none" xmlns="http://www.w3.org/2000/svg">
<path fill-rule="evenodd" clip-rule="evenodd" d="M108.798 66.1607C114.566 66.3977 125.707 66.4767 125.47 63.395C125.233 60.2342 115.04 59.286 109.825 58.9699C109.351 58.2588 108.877 57.3105 108.561 56.1252C105.558 46.722 103.266 37.1607 101.291 27.5203C100.264 22.7002 99.3155 17.88 98.3673 13.0598C97.4981 8.79282 97.34 3.7356 94.8115 0.10072C93.7052 -1.55868 80.2723 17.801 79.4821 18.8282C78.6919 19.9345 76.7955 21.3569 75.6892 21.1988C67.1553 19.6975 58.7005 20.4086 50.3246 22.068C48.9023 22.3051 46.6108 21.3569 45.7416 20.2506C41.1586 14.4032 36.7336 4.44677 29.8591 0.969929C26.5403 4.52579 27.0144 10.3732 26.5403 14.8773C25.9082 20.3296 25.3551 25.7819 24.6439 31.3133C24.0908 35.9754 20.772 55.6511 16.189 61.8146C11.369 62.5258 -1.0368 64.9754 0.0694411 69.6375C1.17569 74.2996 13.2654 70.5067 18.1645 68.7683C18.4805 69.1634 18.7966 69.7165 19.0337 70.3487C19.2707 70.9018 19.3497 71.3759 19.3497 71.771C15.7149 73.5094 4.57344 79.1198 7.102 82.9127C9.39351 86.3895 18.8756 81.0953 23.0636 78.4086C23.3796 78.4876 23.6167 78.6457 23.7747 78.8037C35.5483 90.0244 50.1666 93.1852 66.0491 92.6321C78.2968 92.1579 90.1494 89.4713 99.1574 81.0953C101.37 79.0408 103.345 77.1443 105.479 76.1171C109.43 78.1716 118.596 82.3596 120.65 78.3296C122.784 74.2206 112.116 71.2969 107.77 70.2697C107.375 68.0571 107.849 66.8718 108.798 66.1607ZM47.638 51.3841C47.401 53.7547 46.1367 56.2043 44.0032 57.5476C35.9434 62.6048 30.3332 51.7002 36.4175 45.7738C43.4501 38.8991 48.2701 45.3786 47.638 51.3841ZM92.3619 49.5667C91.0977 57.9427 85.0133 58.0217 82.0106 54.94C78.2178 50.989 78.3758 42.1389 86.5146 41.2697C91.0186 40.8746 92.836 46.4849 92.3619 49.5667Z" fill="white"/>
</svg>
