<svg width="200" height="200" viewBox="0 0 200 200" fill="none" xmlns="http://www.w3.org/2000/svg">
<path d="M62.5 25C62.5 31.9812 56.9812 37.5 50 37.5H43.75C30 37.5 18.75 48.75 18.75 62.5C18.75 76.25 30 87.5 43.75 87.5H50.975C50.3281 90.5831 50.0014 93.7248 50 96.875V175H62.5V96.875C62.5 77.9313 77.9313 62.5 96.875 62.5C102.513 62.5 107.812 63.7937 112.5 66.2125V52.7375C107.486 50.9387 102.202 50.0128 96.875 50C78.9562 50 63.3562 60.1812 55.4688 75H43.75C36.7688 75 31.25 69.4812 31.25 62.5C31.25 55.5188 36.7688 50 43.75 50H50C63.75 50 75 38.75 75 25H62.5ZM118.75 38.0875V78.125C118.75 94.0625 133.225 106.25 150 106.25C166.775 106.25 181.25 94.0625 181.25 78.125V38.0875L171.481 44.9187L161.131 52.15C157.569 50.8812 154.05 49.4125 150 49.4125C145.95 49.4125 142.437 50.8812 138.869 52.15L128.513 44.925L118.75 38.0875ZM150 61.9125C153.613 61.9125 156.937 62.7875 159.769 64.2563L163.081 66.0125L166.206 63.8687L168.75 62.1125V78.125C168.75 86.35 160.837 93.75 150 93.75C139.163 93.75 131.25 86.35 131.25 78.125V62.1063L133.788 63.8687L136.913 66.0187L140.237 64.2563C143.257 62.7048 146.605 61.9011 150 61.9125ZM106.25 93.75C89.0125 93.75 75 107.763 75 125V175H87.5V125C87.5 114.675 95.925 106.25 106.25 106.25C116.575 106.25 125 114.675 125 125V175H137.5V125C137.5 118.969 135.794 113.375 132.812 108.594C126.906 105.802 121.849 101.488 118.163 96.0938C114.383 94.5406 110.336 93.7443 106.25 93.75ZM162.5 110.55C158.461 111.851 154.243 112.509 150 112.5V175H162.5V110.55Z" fill="white"/>
</svg>
