<svg width="35" height="35" viewBox="0 0 35 35" fill="none" xmlns="http://www.w3.org/2000/svg">
<path d="M8.75004 2.91666H21.875C22.6486 2.91666 23.3905 3.22395 23.9374 3.77093C24.4844 4.31791 24.7917 5.05978 24.7917 5.83332V8.74999H21.875V5.83332H8.75004V29.1667H21.875V26.25H24.7917V29.1667C24.7917 29.9402 24.4844 30.6821 23.9374 31.2291C23.3905 31.776 22.6486 32.0833 21.875 32.0833H8.75004C7.97649 32.0833 7.23463 31.776 6.68765 31.2291C6.14066 30.6821 5.83337 29.9402 5.83337 29.1667V5.83332C5.83337 5.05978 6.14066 4.31791 6.68765 3.77093C7.23463 3.22395 7.97649 2.91666 8.75004 2.91666V2.91666Z" fill="#4BA48F"/>
<path d="M23.4646 22.7354L25.5208 24.7917L32.8125 17.5L25.5208 10.2083L23.4646 12.2646L27.2271 16.0417H13.125V18.9583H27.2271L23.4646 22.7354Z" fill="#4BA48F"/>
</svg>
