<svg width="27" height="20" viewBox="0 0 27 20" fill="none" xmlns="http://www.w3.org/2000/svg">
<path fill-rule="evenodd" clip-rule="evenodd" d="M23.2455 14.2753C24.4779 14.3265 26.8584 14.3435 26.8077 13.6786C26.7571 12.9966 24.5792 12.792 23.4649 12.7238C23.3636 12.5704 23.2623 12.3658 23.1948 12.11C22.5533 10.0811 22.0637 8.01807 21.6416 5.938C21.4221 4.89797 21.2195 3.85793 21.0169 2.81789C20.8312 1.89721 20.7975 0.806022 20.2572 0.0217322C20.0209 -0.336313 17.1508 3.84088 16.982 4.06253C16.8131 4.30122 16.408 4.60812 16.1716 4.57402C14.3483 4.25007 12.5418 4.40352 10.7522 4.76157C10.4484 4.81272 9.95876 4.60812 9.77305 4.36942C8.79385 3.10774 7.84842 0.959469 6.37962 0.209279C5.67055 0.976519 5.77184 2.2382 5.67055 3.21004C5.53549 4.38647 5.41731 5.56291 5.26536 6.75639C5.14718 7.76233 4.43811 12.0077 3.45891 13.3376C2.42907 13.491 -0.221521 14.0196 0.0148366 15.0255C0.251195 16.0315 2.83425 15.2131 3.88098 14.838C3.94851 14.9232 4.01604 15.0426 4.06669 15.179C4.11734 15.2983 4.13422 15.4006 4.13422 15.4859C3.35762 15.861 0.977152 17.0715 1.5174 17.8899C2.007 18.6401 4.03292 17.4977 4.92771 16.9181C4.99524 16.9351 5.04589 16.9692 5.07965 17.0033C7.59518 19.4244 10.7185 20.1064 14.1119 19.987C16.7287 19.8847 19.2611 19.305 21.1858 17.4977C21.6585 17.0545 22.0806 16.6453 22.5364 16.4236C23.3805 16.8669 25.3389 17.7705 25.7779 16.901C26.2337 16.0144 23.9545 15.3836 23.026 15.1619C22.9416 14.6845 23.0429 14.4288 23.2455 14.2753ZM10.1782 11.087C10.1276 11.5985 9.85746 12.1271 9.40163 12.4169C7.67959 13.5081 6.48092 11.1552 7.78089 9.8765C9.28345 8.39317 10.3133 9.79125 10.1782 11.087ZM19.7339 10.6949C19.4637 12.5022 18.1638 12.5192 17.5222 11.8543C16.7118 11.0018 16.7456 9.09221 18.4845 8.90466C19.4468 8.81941 19.8351 10.0299 19.7339 10.6949Z" fill="#4BA48F"/>
</svg>
