<svg width="21" height="20" viewBox="0 0 21 20" fill="none" xmlns="http://www.w3.org/2000/svg">
<path fill-rule="evenodd" clip-rule="evenodd" d="M10.25 0C4.5892 0 0 4.47727 0 10C0 15.5227 4.5892 20 10.25 20C15.9108 20 20.5 15.5227 20.5 10C20.5 4.47727 15.9108 0 10.25 0ZM11.1818 13.6364C11.1818 13.8775 11.0836 14.1087 10.9089 14.2792C10.7341 14.4497 10.4971 14.5455 10.25 14.5455C10.0029 14.5455 9.76585 14.4497 9.59111 14.2792C9.41636 14.1087 9.31818 13.8775 9.31818 13.6364V10.9091H6.52273C6.27559 10.9091 6.03858 10.8133 5.86383 10.6428C5.68908 10.4723 5.59091 10.2411 5.59091 10C5.59091 9.75889 5.68908 9.52766 5.86383 9.35718C6.03858 9.18669 6.27559 9.09091 6.52273 9.09091H9.31818V6.36364C9.31818 6.12253 9.41636 5.8913 9.59111 5.72081C9.76585 5.55032 10.0029 5.45455 10.25 5.45455C10.4971 5.45455 10.7341 5.55032 10.9089 5.72081C11.0836 5.8913 11.1818 6.12253 11.1818 6.36364V9.09091H13.9773C14.2244 9.09091 14.4614 9.18669 14.6362 9.35718C14.8109 9.52766 14.9091 9.75889 14.9091 10C14.9091 10.2411 14.8109 10.4723 14.6362 10.6428C14.4614 10.8133 14.2244 10.9091 13.9773 10.9091H11.1818V13.6364Z" fill="#9A9CAC"/>
</svg>
