<svg width="15" height="16" viewBox="0 0 15 16" fill="none" xmlns="http://www.w3.org/2000/svg">
<path d="M7.59823 0C5.22175 0 3.28833 1.7944 3.28833 4V6.4H2.42635C1.47559 6.4 0.702393 7.1176 0.702393 8V14.4C0.702393 15.2824 1.47559 16 2.42635 16H12.7701C13.7209 16 14.4941 15.2824 14.4941 14.4V8C14.4941 7.1176 13.7209 6.4 12.7701 6.4H11.9081V4C11.9081 1.7944 9.9747 0 7.59823 0ZM12.7701 8L12.7718 14.4H2.42635V8H12.7701ZM5.01229 6.4V4C5.01229 2.6768 6.17251 1.6 7.59823 1.6C9.02394 1.6 10.1842 2.6768 10.1842 4V6.4H5.01229Z" fill="#828395"/>
</svg>
