<svg width="24" height="20" viewBox="0 0 24 20" fill="none" xmlns="http://www.w3.org/2000/svg">
<path d="M22.8021 6.47841C22.5353 5.84436 22.0921 5.38721 21.5201 5.15695L21.5124 5.15407C21.252 5.05209 20.9748 4.99991 20.6952 5.00025H20.6644C19.355 5.01995 18.0182 6.13278 17.3384 7.76957C16.84 8.96652 16.7828 10.2538 17.1856 11.2133C17.4519 11.8479 17.8961 12.305 18.4705 12.5353L18.4767 12.5377C18.7371 12.6396 19.0143 12.6917 19.2939 12.6915C20.6159 12.6915 21.9666 11.5787 22.6588 9.92024C23.1511 8.72473 23.2054 7.43837 22.8021 6.47841Z" fill="#4BA48F"/>
<path d="M17.5702 13.538C16.815 13.0842 16.1012 12.6549 15.6349 11.8839C14.3486 9.74958 13.5717 8.4613 11.535 8.4613C9.49828 8.4613 8.71954 9.74958 7.4303 11.8839C6.96306 12.6559 6.24778 13.0856 5.49019 13.5414C4.62156 14.0634 3.72409 14.6027 3.33665 15.6641C3.18603 16.0468 3.11015 16.4547 3.11312 16.8659C3.11312 18.594 4.45909 20.0001 6.1127 20.0001C6.96594 20.0001 7.87399 19.7044 8.83491 19.3915C9.75882 19.0906 10.714 18.7796 11.5398 18.7796C12.3657 18.7796 13.3184 19.0906 14.239 19.3915C15.198 19.7025 16.1017 19.9981 16.9573 19.9981C18.6085 19.9981 19.9521 18.5921 19.9521 16.864C19.9535 16.4525 19.876 16.0445 19.7238 15.6622C19.3363 14.5999 18.4384 14.06 17.5702 13.538Z" fill="#4BA48F"/>
<path d="M6.43965 6.77153C7.01169 7.48922 7.73755 7.88436 8.4836 7.88436C8.58544 7.88435 8.68715 7.8768 8.78788 7.86176C10.3439 7.63295 11.3135 5.73418 10.9953 3.53545C10.8621 2.61106 10.5064 1.75013 9.99684 1.11176C9.42577 0.39551 8.69895 0.000854492 7.95338 0.000854492C7.85154 0.000857757 7.74983 0.00840949 7.6491 0.0234475C6.09307 0.252261 5.12349 2.15103 5.44172 4.34976C5.57439 5.27271 5.93011 6.13268 6.43965 6.77153Z" fill="#4BA48F"/>
<path d="M14.2826 7.86188C14.3834 7.87691 14.4851 7.88447 14.5869 7.88447C15.3335 7.88447 16.0588 7.48933 16.6309 6.77164C17.1399 6.13279 17.4937 5.27282 17.6283 4.34891C17.9466 2.15114 16.977 0.252368 15.421 0.022593C15.3202 0.007555 15.2185 3.26444e-06 15.1167 0C14.3711 0.000961403 13.6443 0.395618 13.0732 1.11186C12.5637 1.75023 12.2079 2.61117 12.0753 3.53652C11.757 5.73429 12.7266 7.63306 14.2826 7.86188Z" fill="#4BA48F"/>
<path d="M4.59322 12.5377L4.59995 12.5353C5.17343 12.305 5.61711 11.8483 5.88294 11.2143C6.28577 10.2529 6.22904 8.967 5.73152 7.77005C5.04268 6.11355 3.69239 5.00025 2.3719 5.00025C2.09227 4.99984 1.81505 5.05202 1.55471 5.15407L1.54798 5.15647C0.975944 5.38481 0.532257 5.8434 0.266429 6.47745C-0.136398 7.43885 -0.0796753 8.72473 0.41785 9.92168C1.10669 11.5782 2.45698 12.6915 3.77747 12.6915C4.05662 12.6917 4.33332 12.6395 4.59322 12.5377Z" fill="#4BA48F"/>
</svg>
